<svg width="229" height="223" viewBox="0 0 229 223" fill="none" xmlns="http://www.w3.org/2000/svg">
<path d="M94.4847 1L179.001 52L183.001 147L94.4847 204L5.0011 153.5V52L94.4847 1Z" fill="#4338ca"/>
<path d="M94.5011 1L183.001 147L5.5011 153L94.5011 1Z" fill="white" fill-opacity="0.13"/>
<path d="M5.0011 52L94.5011 204L5.0011 153.227V52Z" fill="#4338ca" fill-opacity="0.43"/>
<path d="M94.5012 204L179.001 52.0001L183.001 147L94.5012 204Z" fill="#4338ca" fill-opacity="0.43"/>
<path d="M94.0011 0.5L94.5011 204L4.50111 51.5L94.0011 0.5Z" fill="white" fill-opacity="0.22"/>
<path d="M179.001 51.9998L94.5012 204V1L179.001 51.9998Z" fill="white" fill-opacity="0.16"/>
<path d="M94.5 150L5.00002 52L179 52L94.5 150Z" fill="white" fill-opacity="0.13"/>
</svg>
